<svg width="24" height="25" viewBox="0 0 24 25" fill="none" xmlns="http://www.w3.org/2000/svg">
<path d="M19 9.93311C19 9.01385 18.8189 8.1036 18.4672 7.25432C18.1154 6.40504 17.5998 5.63337 16.9497 4.98336C16.2997 4.33335 15.5281 3.81773 14.6788 3.46595C13.8295 3.11417 12.9193 2.93311 12 2.93311C11.0807 2.93311 10.1705 3.11417 9.32122 3.46595C8.47194 3.81773 7.70026 4.33335 7.05025 4.98336C6.40024 5.63337 5.88463 6.40504 5.53284 7.25432C5.18106 8.1036 5 9.01385 5 9.93311C5 11.3201 5.41 12.6101 6.105 13.6981H6.097C8.457 17.3931 12 22.9331 12 22.9331L17.903 13.6981H17.896C18.6164 12.5745 18.9995 11.2678 19 9.93311ZM12 12.9331C11.2044 12.9331 10.4413 12.617 9.87868 12.0544C9.31607 11.4918 9 10.7288 9 9.93311C9 9.13746 9.31607 8.37439 9.87868 7.81179C10.4413 7.24918 11.2044 6.93311 12 6.93311C12.7956 6.93311 13.5587 7.24918 14.1213 7.81179C14.6839 8.37439 15 9.13746 15 9.93311C15 10.7288 14.6839 11.4918 14.1213 12.0544C13.5587 12.617 12.7956 12.9331 12 12.9331Z" fill="#F53838"/>
</svg>
