<svg width="25" height="25" viewBox="0 0 25 25" fill="none" xmlns="http://www.w3.org/2000/svg">
<path fill-rule="evenodd" clip-rule="evenodd" d="M12.5 11.7331C13.4548 11.7331 14.3704 11.3538 15.0456 10.6787C15.7207 10.0035 16.1 9.08786 16.1 8.13308C16.1 7.1783 15.7207 6.26263 15.0456 5.5875C14.3704 4.91237 13.4548 4.53308 12.5 4.53308C11.5452 4.53308 10.6295 4.91237 9.95439 5.5875C9.27926 6.26263 8.89998 7.1783 8.89998 8.13308C8.89998 9.08786 9.27926 10.0035 9.95439 10.6787C10.6295 11.3538 11.5452 11.7331 12.5 11.7331ZM7.39863 22.5331C5.57683 22.5331 4.04222 21.0017 4.73939 19.3185C5.16153 18.2994 5.78027 17.3734 6.56028 16.5934C7.34029 15.8134 8.2663 15.1946 9.28544 14.7725C10.3046 14.3504 11.3969 14.1331 12.5 14.1331C13.6031 14.1331 14.6954 14.3504 15.7145 14.7725C16.7337 15.1946 17.6597 15.8134 18.4397 16.5934C19.2197 17.3734 19.8384 18.2994 20.2606 19.3185C20.9577 21.0017 19.4231 22.5331 17.6013 22.5331H7.39863Z" fill="#F53838"/>
</svg>
