<svg width="25" height="25" viewBox="0 0 25 25" fill="none" xmlns="http://www.w3.org/2000/svg">
<path d="M20.5 3.93311H4.5C3.96957 3.93311 3.46086 4.14382 3.08579 4.51889C2.71071 4.89396 2.5 5.40267 2.5 5.93311V9.93311C2.5 10.4635 2.71071 10.9722 3.08579 11.3473C3.46086 11.7224 3.96957 11.9331 4.5 11.9331H20.5C21.0304 11.9331 21.5391 11.7224 21.9142 11.3473C22.2893 10.9722 22.5 10.4635 22.5 9.93311V5.93311C22.5 5.40267 22.2893 4.89396 21.9142 4.51889C21.5391 4.14382 21.0304 3.93311 20.5 3.93311ZM15.5 7.93311C15.5 8.48539 15.0523 8.93311 14.5 8.93311C13.9477 8.93311 13.5 8.48539 13.5 7.93311C13.5 7.38082 13.9477 6.93311 14.5 6.93311C15.0523 6.93311 15.5 7.38082 15.5 7.93311ZM19.5 7.93311C19.5 8.48539 19.0523 8.93311 18.5 8.93311C17.9477 8.93311 17.5 8.48539 17.5 7.93311C17.5 7.38082 17.9477 6.93311 18.5 6.93311C19.0523 6.93311 19.5 7.38082 19.5 7.93311ZM20.5 13.9331H4.5C3.96957 13.9331 3.46086 14.1438 3.08579 14.5189C2.71071 14.894 2.5 15.4027 2.5 15.9331V19.9331C2.5 20.4635 2.71071 20.9722 3.08579 21.3473C3.46086 21.7224 3.96957 21.9331 4.5 21.9331H20.5C21.0304 21.9331 21.5391 21.7224 21.9142 21.3473C22.2893 20.9722 22.5 20.4635 22.5 19.9331V15.9331C22.5 15.4027 22.2893 14.894 21.9142 14.5189C21.5391 14.1438 21.0304 13.9331 20.5 13.9331ZM15.5 17.9331C15.5 18.4854 15.0523 18.9331 14.5 18.9331C13.9477 18.9331 13.5 18.4854 13.5 17.9331C13.5 17.3808 13.9477 16.9331 14.5 16.9331C15.0523 16.9331 15.5 17.3808 15.5 17.9331ZM19.5 17.9331C19.5 18.4854 19.0523 18.9331 18.5 18.9331C17.9477 18.9331 17.5 18.4854 17.5 17.9331C17.5 17.3808 17.9477 16.9331 18.5 16.9331C19.0523 16.9331 19.5 17.3808 19.5 17.9331Z" fill="#F53838"/>
</svg>
